# xmcd CD database file
#
# Track frame offsets:
#	150
#	2882
#	20118
#	37720
#	55148
#	79356
#	92997
#	110864
#	126869
#	138347
#	164982
#
# Disc length: 2234 seconds
#
# Revision: 0
# Processed by: cddbd v1.5.1PL0 Copyright (c) Steve Scherf et al.
# Submitted via: CDex 1.51
#
DISCID=9b08b80b
DTITLE=Brokers' Experience - Gospels in Blues
DYEAR=1998
DGENRE=Blues
TTITLE0=Swing low - Intro
TTITLE1=Wayfaring stranger
TTITLE2=Nobody knows
TTITLE3=Joshua fit the battle
TTITLE4=Sometimes I feel
TTITLE5=On my way
TTITLE6=Peace in the Valley
TTITLE7=This train
TTITLE8=Down by the riverside
TTITLE9=Precious Lord
TTITLE10=Swing low - Cierre
EXTD=YEAR: 1998
EXTT0=
EXTT1=
EXTT2=
EXTT3=
EXTT4=
EXTT5=
EXTT6=
EXTT7=
EXTT8=
EXTT9=
EXTT10=
PLAYORDER=
